<svg xmlns="http://www.w3.org/2000/svg" viewBox="0 0 21.81 38.24"><defs><style>.cls-1{fill:#f3555a;}</style></defs><g id="圖層_2" data-name="圖層 2"><g id="圖層_1-2" data-name="圖層 1"><path class="cls-1" d="M.75,1a16.34,16.34,0,0,0,2.76,14.9c3,4,9.86,8.17,14.65,4.61,2.26-1.68,3.25-5.07,1.24-7.34a5.94,5.94,0,0,0-6.82-1.12c-2.6,1.22-4,4-5,6.5-1.28,3.22-2.29,6.75-1.92,10.25a11.09,11.09,0,0,0,4.47,8c3.3,2.3,7.14,1.37,10.64.11,1.8-.65,1-3.55-.8-2.9-2.22.8-4.84,1.84-7.17.87a7.12,7.12,0,0,1-3.71-4.29,12.66,12.66,0,0,1,.08-7.34,22.11,22.11,0,0,1,2.63-6.54c.95-1.45,2.59-2.73,4.43-2.11s1.3,2.89-.18,3.72c-2,1.1-4.65.12-6.43-.9a12.71,12.71,0,0,1-4-3.69,13.41,13.41,0,0,1-2-11.92C4.25,0,1.35-.79.75,1Z"/></g></g></svg>