<svg xmlns="http://www.w3.org/2000/svg" viewBox="0 0 36.59 41.44"><defs><style>.cls-1{fill:#f3555a;}</style></defs><g id="圖層_2" data-name="圖層 2"><g id="圖層_1-2" data-name="圖層 1"><path class="cls-1" d="M.07,1.44c-.44,7.6,1.25,16,6,22.11,4,5.22,10.43,8.12,16.75,5.34a10.19,10.19,0,0,0,5.71-6A5.93,5.93,0,0,0,28.25,18a3.93,3.93,0,0,0-4.2-1.64c-6.2,1.05-8.35,8.86-6.81,14.12,2.21,7.58,10.7,10.74,17.9,10.92,1.93.05,1.93-2.95,0-3-5.14-.13-11-1.81-14-6.4C19,28.58,19.1,23,22.51,20.35c.62-.49,2-1.39,2.87-1s.38,2.4.07,3.13a7.73,7.73,0,0,1-4.7,4C15.7,28.17,11,25.39,8.06,21.29c-4-5.66-5.38-13-5-19.85.11-1.92-2.89-1.92-3,0Z"/></g></g></svg>