<svg xmlns="http://www.w3.org/2000/svg" viewBox="0 0 28.84 68.18"><defs><style>.cls-1{fill:#f3555a;}</style></defs><g id="圖層_2" data-name="圖層 2"><g id="圖層_1-2" data-name="圖層 1"><path class="cls-1" d="M2.29,1.11C-3.29,14.37,1.61,31.76,14,39.49c3.2,2,7.7,3.42,11.22,1.33a7.41,7.41,0,0,0,3.42-8A5.4,5.4,0,0,0,21,29.7c-3.26,1.54-5.43,5.14-6.32,8.5a42.72,42.72,0,0,0,2.87,29.21c.83,1.74,3.42.22,2.59-1.51a39.77,39.77,0,0,1-3.56-21.73c.38-3.28,1-6.8,3.08-9.47,1.18-1.53,4.29-4.16,5.88-1.56,1.1,1.82-.47,4.53-2.22,5.3-3.12,1.37-6.84-.7-9.28-2.56A28.25,28.25,0,0,1,4.27,21.44,28.88,28.88,0,0,1,5.18,1.91a1.51,1.51,0,0,0-1-1.85A1.53,1.53,0,0,0,2.29,1.11Z"/></g></g></svg>