<svg xmlns="http://www.w3.org/2000/svg" xmlns:xlink="http://www.w3.org/1999/xlink" viewBox="0 0 42.66 42.76"><defs><style>.cls-1{fill:none;}.cls-2{fill:#f99b02;}.cls-3{clip-path:url(#clip-path);}.cls-4{fill:#df8204;}.cls-5{fill:#fbd054;}.cls-6{fill:#f9e171;}.cls-7{fill:#fdac28;}</style><clipPath id="clip-path"><path class="cls-1" d="M31.23,7.64l-2-2.34L3.54,26.91l2,2.35c5.23,6.22,15.22,6.42,22.33.45S36.45,13.86,31.23,7.64Z"/></clipPath></defs><title>coin</title><g id="圖層_2" data-name="圖層 2"><g id="圖層_1-2" data-name="圖層 1"><path class="cls-2" d="M31.23,7.64l-2-2.34L3.54,26.91l2,2.35c5.23,6.22,15.22,6.42,22.33.45S36.45,13.86,31.23,7.64Z"/><g class="cls-3"><rect class="cls-4" x="9.73" y="24.83" width="0.83" height="20" transform="translate(-20.03 14.69) rotate(-40.04)"/><rect class="cls-4" x="11.39" y="23.44" width="0.83" height="20" transform="translate(-18.75 15.43) rotate(-40.04)"/><rect class="cls-4" x="13.28" y="21.85" width="0.83" height="20" transform="translate(-17.28 16.28) rotate(-40.04)"/><rect class="cls-4" x="15.64" y="19.87" width="0.83" height="20" transform="translate(-15.45 17.33) rotate(-40.04)"/><rect class="cls-4" x="18.23" y="17.69" width="0.83" height="20" transform="translate(-13.44 18.49) rotate(-40.04)"/><rect class="cls-4" x="21.06" y="15.31" width="0.83" height="20" transform="translate(-11.25 19.75) rotate(-40.04)"/><rect class="cls-4" x="35.49" y="3.19" width="0.83" height="20" transform="translate(-0.07 26.19) rotate(-40.04)"/><rect class="cls-4" x="33.84" y="4.58" width="0.83" height="20" transform="translate(-1.35 25.46) rotate(-40.04)"/><rect class="cls-4" x="31.95" y="6.17" width="0.83" height="20" transform="matrix(0.77, -0.64, 0.64, 0.77, -2.82, 24.61)"/><rect class="cls-4" x="29.59" y="8.15" width="0.83" height="20" transform="translate(-4.64 23.55) rotate(-40.04)"/><rect class="cls-4" x="26.99" y="10.33" width="0.83" height="20" transform="translate(-6.65 22.4) rotate(-40.04)"/><rect class="cls-4" x="24.16" y="12.71" width="0.83" height="20" transform="translate(-8.85 21.14) rotate(-40.04)"/></g><path class="cls-5" d="M25.43,26.87c-7.1,6-17.1,5.77-22.33-.45S-.59,10.32,6.51,4.35s17.1-5.77,22.33.45S32.54,20.9,25.43,26.87Z"/><path class="cls-6" d="M6.47,5.14c7.11-6,17.1-5.77,22.33.45a13.46,13.46,0,0,1,3.09,9.14A13.61,13.61,0,0,0,28.84,4.8C23.61-1.42,13.62-1.62,6.51,4.35A17.72,17.72,0,0,0,0,17.28,17.83,17.83,0,0,1,6.47,5.14Z"/><path class="cls-6" d="M5.8,24.35c-3.89-4.63-2.57-12.17,3-16.81s13.17-4.64,17.06,0,2.57,12.17-2.95,16.81S9.69,29,5.8,24.35Z"/><path class="cls-7" d="M6,24c-3.89-4.63-2.56-12.17,3-16.81S22.09,2.57,26,7.2,28.55,19.37,23,24,9.86,28.65,6,24Z"/><path class="cls-4" d="M7.24,24.47C3.35,19.84,4.68,12.3,10.19,7.66A13.71,13.71,0,0,1,22.47,4.6c-4.06-1.74-9.41-.87-13.56,2.61C3.4,11.85,2.07,19.39,6,24a9.64,9.64,0,0,0,4.8,3.05A9.54,9.54,0,0,1,7.24,24.47Z"/><path class="cls-4" d="M22.37,13.37a5.93,5.93,0,0,1,.32,1.5,5.48,5.48,0,0,1-.08,1.36,3.73,3.73,0,0,1-.39,1.11,2.21,2.21,0,0,1-.64.76.37.37,0,0,1-.29,0,.34.34,0,0,1-.24-.15l-1.26-1.93a.8.8,0,0,1-.15-.37,1.14,1.14,0,0,1,0-.37c0-.05,0-.12.06-.23a1.33,1.33,0,0,0,0-.42,2.09,2.09,0,0,0-.09-.56,3,3,0,0,0-.34-.7,5.65,5.65,0,0,0-.39-.51,2.4,2.4,0,0,0-.42-.38.94.94,0,0,0-.44-.18.64.64,0,0,0-.45.12.58.58,0,0,0-.27.38,1.49,1.49,0,0,0,0,.65,7.34,7.34,0,0,0,.33,1c.16.41.36.93.61,1.53a9.87,9.87,0,0,1,.51,1.69,4,4,0,0,1,0,1.41,2.8,2.8,0,0,1-.49,1.18,3.79,3.79,0,0,1-1.07,1,3.25,3.25,0,0,1-1.28.51,3.62,3.62,0,0,1-1.35-.07,4.45,4.45,0,0,1-1.33-.59,6.58,6.58,0,0,1-1.25-1.08l-1,.68a.46.46,0,0,1-.36.07.45.45,0,0,1-.3-.2L9.11,18.71a.45.45,0,0,1-.06-.36.42.42,0,0,1,.2-.3l1.09-.71A6.25,6.25,0,0,1,10,15.77a5.1,5.1,0,0,1,0-1.42,3.62,3.62,0,0,1,.42-1.17,2.71,2.71,0,0,1,.75-.82.38.38,0,0,1,.29-.06.34.34,0,0,1,.24.15L13,14.38a1.08,1.08,0,0,1,.16.36,1.82,1.82,0,0,1,0,.33c0,.07,0,.17-.08.31a1.73,1.73,0,0,0-.06.49,2,2,0,0,0,.08.66,2.89,2.89,0,0,0,.38.81,5.23,5.23,0,0,0,1,1.19.76.76,0,0,0,.95.12.5.5,0,0,0,.24-.43,2,2,0,0,0-.1-.75,9.72,9.72,0,0,0-.39-1.14c-.19-.45-.39-1-.63-1.59a4.94,4.94,0,0,1-.36-2.92,3.41,3.41,0,0,1,1.56-2,3.13,3.13,0,0,1,1.12-.46,3.43,3.43,0,0,1,1.24,0,4.19,4.19,0,0,1,1.26.43,5,5,0,0,1,1.23.89l1.09-.72a.45.45,0,0,1,.36-.06.42.42,0,0,1,.3.2L23.61,12a.43.43,0,0,1,.06.35.45.45,0,0,1-.2.3Z"/><path class="cls-5" d="M22.14,13a5.93,5.93,0,0,1,.32,1.5,5.45,5.45,0,0,1-.08,1.36A3.8,3.8,0,0,1,22,16.93a2.21,2.21,0,0,1-.64.76.42.42,0,0,1-.29,0,.34.34,0,0,1-.24-.15l-1.26-1.93a.85.85,0,0,1-.15-.37,1.14,1.14,0,0,1,0-.37l.06-.24a1.24,1.24,0,0,0,0-.41,2.09,2.09,0,0,0-.09-.56,2.53,2.53,0,0,0-.35-.7,5.37,5.37,0,0,0-.38-.52,2.32,2.32,0,0,0-.42-.37.94.94,0,0,0-.44-.18.64.64,0,0,0-.45.12.58.58,0,0,0-.27.38,1.44,1.44,0,0,0,0,.64,7.41,7.41,0,0,0,.33,1c.16.41.36.92.61,1.53a9.78,9.78,0,0,1,.51,1.68,4,4,0,0,1,0,1.42,2.8,2.8,0,0,1-.49,1.18,4,4,0,0,1-1.07,1,3.08,3.08,0,0,1-1.28.5,3.42,3.42,0,0,1-1.35-.06,4.25,4.25,0,0,1-1.33-.6,6.18,6.18,0,0,1-1.25-1.07l-1,.68a.5.5,0,0,1-.36.07.47.47,0,0,1-.3-.21L8.88,18.3a.45.45,0,0,1-.06-.36.42.42,0,0,1,.2-.3l1.09-.71a6.36,6.36,0,0,1-.37-1.57,5.09,5.09,0,0,1,0-1.42,3.53,3.53,0,0,1,.42-1.17,2.87,2.87,0,0,1,.75-.83.42.42,0,0,1,.29,0,.34.34,0,0,1,.24.15L12.75,14a1,1,0,0,1,.16.35,1.93,1.93,0,0,1,0,.34c0,.07,0,.17-.08.3a1.8,1.8,0,0,0-.06.5,2,2,0,0,0,.08.65,2.81,2.81,0,0,0,.38.82,5.46,5.46,0,0,0,1,1.19.76.76,0,0,0,.95.12.52.52,0,0,0,.24-.43,2.1,2.1,0,0,0-.1-.76A10.33,10.33,0,0,0,15,15.92c-.19-.45-.39-1-.63-1.6A4.93,4.93,0,0,1,14,11.4a3.44,3.44,0,0,1,1.56-2,3.3,3.3,0,0,1,1.12-.45,3.22,3.22,0,0,1,1.24,0,3.93,3.93,0,0,1,1.26.43,5.27,5.27,0,0,1,1.23.88l1.09-.71a.45.45,0,0,1,.36-.06.42.42,0,0,1,.3.2l1.26,1.93a.42.42,0,0,1,.06.35.45.45,0,0,1-.2.3Z"/></g></g></svg>