<svg xmlns="http://www.w3.org/2000/svg" viewBox="0 0 83.76 83.76"><defs><style>.cls-1{fill:#007aff;}.cls-2{fill:#fff;}</style></defs><g id="圖層_2" data-name="圖層 2"><g id="圖層_1-2" data-name="圖層 1"><path class="cls-1" d="M83.76,41.88A41.88,41.88,0,1,1,41.88,0,41.88,41.88,0,0,1,83.76,41.88Z"/><path class="cls-2" d="M55.71,55.76a15.09,15.09,0,0,1-11.45,5.59c-9,0-14.75-8.72-14.75-19.47s5.73-19.46,14.75-19.46A15.05,15.05,0,0,1,55.71,28l4.89-4.89c-4.17-5.22-10-8.48-16.56-8.48-12.62,0-21.32,12.2-21.32,27.24S31.42,69.12,44,69.12c6.52,0,12.39-3.26,16.56-8.48Z"/><rect class="cls-2" x="16.17" y="34.05" width="34.35" height="6.37"/><rect class="cls-2" x="16.17" y="43.34" width="34.35" height="6.37"/></g></g></svg>