<svg xmlns="http://www.w3.org/2000/svg" viewBox="0 0 62.6 62.59"><defs><style>.cls-1{fill:#b7d432;}.cls-2{fill:#fff;}</style></defs><g id="圖層_2" data-name="圖層 2"><g id="圖層_1-2" data-name="圖層 1"><circle class="cls-1" cx="31.3" cy="31.3" r="31.3" transform="translate(-3.24 58.98) rotate(-83.71)"/><path class="cls-2" d="M38.83,40.94a5.28,5.28,0,0,0-1.76-4.07,12.4,12.4,0,0,0-5.86-3,19.51,19.51,0,0,1-8.46-4.33A10.65,10.65,0,0,1,19.33,22,11.13,11.13,0,0,1,23,14a12,12,0,0,1,8.48-3.05,12.59,12.59,0,0,1,9.31,3.5,11.52,11.52,0,0,1,2.82,8.49l0,.16H38.76a7.76,7.76,0,0,0-2-5.53c-1.32-1.41-2.85-1.73-5.32-1.73a7.34,7.34,0,0,0-5.29,1.77,5.34,5.34,0,0,0-1.84,4.26,4.63,4.63,0,0,0,2,3.85,17.55,17.55,0,0,0,6.47,3A17.9,17.9,0,0,1,41,33.54a10.22,10.22,0,0,1,2.82,7.34,9.4,9.4,0,0,1-3.38,7.55,13.16,13.16,0,0,1-8.82,2.86,14,14,0,0,1-9-3.16,10,10,0,0,1-3.81-8.45l.05-.16H23.6c0,2.49.43,3.63,2,4.93a9.25,9.25,0,0,0,6,1.95c2.33,0,3.8-.18,5.16-1.29A4.87,4.87,0,0,0,38.83,40.94Z"/><rect class="cls-2" x="28.88" y="7.42" width="4.93" height="47.75"/></g></g></svg>