<svg xmlns="http://www.w3.org/2000/svg" viewBox="0 0 871.74 290.83"><defs><style>.cls-1{fill:#ec1e7a;}.cls-2{fill:#7ca859;}</style></defs><g id="圖層_2" data-name="圖層 2"><g id="圖層_1-2" data-name="圖層 1"><polygon class="cls-1" points="136.97 285.3 67.47 233.3 68.07 232.5 136.82 283.94 216.9 191.43 304.41 258.56 445.23 85.4 445.62 85.87 583.5 253.5 688.4 130.21 688.78 130.59 749.15 191.46 871.14 100.7 871.74 101.51 749.05 192.78 748.74 192.47 688.45 131.68 583.48 255.06 583.1 254.6 445.24 86.98 304.57 259.94 217.03 192.8 136.97 285.3"/><circle class="cls-1" cx="136.89" cy="285.11" r="5.72"/><circle class="cls-1" cx="216.96" cy="193.61" r="5.72"/><circle class="cls-1" cx="749.1" cy="192.11" r="5.72"/><circle class="cls-1" cx="688.43" cy="130.94" r="5.72"/><polygon class="cls-2" points="306.4 151.39 185.69 43.52 133.97 112.3 0 38.58 0.48 37.7 133.69 111 185.54 42.05 306.33 149.99 443.6 0 443.97 0.31 583.41 116.96 660.99 38.52 661.34 38.83 752.94 119.29 843.2 43.39 843.84 44.16 752.92 120.61 752.6 120.33 661.04 39.9 583.47 118.32 583.12 118.02 443.69 1.38 306.4 151.39"/><circle class="cls-2" cx="753" cy="120.44" r="5.72"/><circle class="cls-2" cx="661.22" cy="40.69" r="5.72"/><circle class="cls-2" cx="133.83" cy="111.65" r="5.72"/><circle class="cls-2" cx="185.61" cy="42.79" r="5.72"/></g></g></svg>