<svg xmlns="http://www.w3.org/2000/svg" viewBox="0 0 153.48 232.72"><defs><style>.cls-1,.cls-2,.cls-9{fill:none;stroke-miterlimit:10;}.cls-1,.cls-2{stroke:#29292b;}.cls-1{stroke-width:3px;}.cls-2{stroke-width:4px;}.cls-3{fill:#70c1bc;}.cls-4{fill:#71beb8;}.cls-5{fill:#6fbbb8;}.cls-6{fill:#63b7af;}.cls-7{fill:#289693;}.cls-8{fill:#20827d;}.cls-9{stroke:#63b7af;}</style></defs><g id="圖層_2" data-name="圖層 2"><g id="圖層_1-2" data-name="圖層 1"><polyline class="cls-1" points="55.41 61.72 55.41 84.72 75.41 84.72 75.41 53.72"/><line class="cls-2" x1="65.41" y1="84.72" x2="65.41" y2="232.72"/><path class="cls-1" d="M47.91,232.22c0-2,5-55,5-55h21l9,55"/><path class="cls-3" d="M.41,62.72l36-12,5,14-37,12S-1.59,73.72.41,62.72Z"/><path class="cls-4" d="M68.71,33.79s59.7-25.07,62.7-25.07l13,34S81.72,59,77.07,59.36"/><rect class="cls-5" x="116.01" y="18.82" width="50.88" height="11.08" rx="5.54" transform="translate(118.39 -117.31) rotate(70.99)"/><path class="cls-6" d="M73.65,31.72s8.76,21,10.76,22,5.42,1,54.21-9.5c0,0-57.15,14.63-58.18,14.57s-14-13.65-10.53-25.36C69.91,33.43,73.9,31.72,73.65,31.72Z"/><path class="cls-7" d="M34.41,47.72s4,17,7,20c0,0,38-7,40-9,0,0-13-10-9-27C72.41,31.72,43.41,40.72,34.41,47.72Z"/><path class="cls-8" d="M37.55,45.64s4.86,18.08,6.86,19.08S70.8,61,70.61,61.84l-29.2,5.88s-6-11-7-20Z"/><path class="cls-9" d="M131.22,11.67s7.15,23.17,9.17,26.61"/></g></g></svg>