<svg xmlns="http://www.w3.org/2000/svg" viewBox="0 0 414.04 103.56"><defs><style>.cls-1{fill:#ff6478;stroke:#ff6478;stroke-miterlimit:10;stroke-width:0.5px;}</style></defs><title>title</title><g id="圖層_2" data-name="圖層 2"><g id="圖層_1-2" data-name="圖層 1"><path class="cls-1" d="M55,30.08c-.4,1.57-1.85,4-4.37,7.34-.86,1.16-1.7,1.74-2.53,1.74-1.24,0-1.7-.65-1.38-2A3,3,0,0,1,47.35,36a35.23,35.23,0,0,0,4.1-6.1,2.58,2.58,0,0,1,2.22-1.6C54.83,28.34,55.27,28.92,55,30.08ZM58.91,27c-1.12,0-1.52-.67-1.19-2l2.49-10a34.35,34.35,0,0,1-5,6q-3,2.89-4,2.9a1.3,1.3,0,0,1-1.14-.43,1.72,1.72,0,0,1,0-1.4,4.42,4.42,0,0,1,1.65-2A43.31,43.31,0,0,0,61,10H55.49q-2.06,0-1.62-1.74a2.23,2.23,0,0,1,2.47-1.69h6l1-4.05c.34-1.39,1.1-2.09,2.25-2.09s1.52.7,1.17,2.09l-1,4.05h4.06A1.81,1.81,0,0,1,71.21,7a1.38,1.38,0,0,1,.19,1.27A2.21,2.21,0,0,1,68.93,10H64.88l-.82,3.29a1.76,1.76,0,0,1,1.29-.53c.47,0,1.21.8,2.2,2.4q.78,1.34,1.08,2a1.63,1.63,0,0,1,.22,1,2,2,0,0,1-2.14,1.6c-.44,0-.89-.47-1.33-1.42l-1.7-3.56L61.15,25A2.23,2.23,0,0,1,58.91,27ZM78,32.35a1.74,1.74,0,0,1,.07,1.47q-1,4.05-3.31,5.25c-1.3.68-4.51,1-9.65,1q-5.91,0-7.22-.66c-.82-.42-1.1-1.27-.84-2.54l1.81-7.26c.36-1.42,1.13-2.13,2.32-2.13s1.6.71,1.24,2.13L61,35.33c-.15.62.14,1,.87,1.16a20.31,20.31,0,0,0,3.55.22q6.1,0,7.29-.49a4.19,4.19,0,0,0,1.59-2.45,3,3,0,0,1,.89-1.42,2.22,2.22,0,0,1,1.45-.45A1.64,1.64,0,0,1,78,32.35ZM66.8,29.1a1.07,1.07,0,0,1-.08-.94,1.88,1.88,0,0,1,2-1.55,1.18,1.18,0,0,1,.84.49,11.89,11.89,0,0,1,1.07,1.51,4.33,4.33,0,0,1,.9,2.8,2.54,2.54,0,0,1-.8,1.43,2.36,2.36,0,0,1-1.49.44c-.68,0-1.21-.6-1.59-1.82A15.56,15.56,0,0,0,66.8,29.1Zm2-3.7c-.5-.62-.55-1.63-.14-3l4-16.08a5.6,5.6,0,0,1,1.73-3.11,4.46,4.46,0,0,1,3.22-.85h11a3.47,3.47,0,0,1,2.84.94c.5.62.56,1.63.18,3l-4,16.08a5.62,5.62,0,0,1-1.76,3.11,4.5,4.5,0,0,1-3.24.85h-11A3.45,3.45,0,0,1,68.79,25.4Zm3.47-3.56q-.3,1.2,1,1.29h9.26a1.61,1.61,0,0,0,1.62-1.29l.67-2.71H72.93Zm2.34-9.39L73.71,16H85.55l.89-3.56Zm.78-3.12H87.22l.6-2.4c.21-.86-.11-1.31-1-1.34H77.6A1.65,1.65,0,0,0,76,6.93ZM86.25,34.8a3.51,3.51,0,0,1,.26,1.47,2.55,2.55,0,0,1-.83,1.44,2.5,2.5,0,0,1-1.6.47,1.45,1.45,0,0,1-1.35-.67l-1.48-4.23-.75-1.64q-.23-.54-.36-1a1.27,1.27,0,0,1-.08-.69,2,2,0,0,1,2.15-1.65,1.23,1.23,0,0,1,1,.49L85,32.08A15,15,0,0,1,86.25,34.8Z"/><path class="cls-1" d="M91.3,39.2c.23-.92,1.58-1.58,4.06-2a56.59,56.59,0,0,0,8.58-2.09,8.15,8.15,0,0,1,2-.45c1.25,0,1.72.6,1.43,1.78q-.16.63-1.71,1.32A39.42,39.42,0,0,1,101,39.34,36.07,36.07,0,0,1,92.67,41C91.45,41,91,40.42,91.3,39.2Zm6-9.34,2.75-11q.72-4.14,5-4.14h25.24c3,0,4.06,1.38,3.11,4.14l-2.75,11.05Q130,34,125.63,34H100.39C97.36,34,96.33,32.62,97.28,29.86Zm3.35-18.44c-.48-.59-.49-1.55,0-2.89l.7-2.8Q102,1.68,106,1.9h29.79a3.49,3.49,0,0,1,2.82.91c.48.61.5,1.58.05,2.92l-.7,2.8q-.7,4.05-4.77,3.78H103.43A3.45,3.45,0,0,1,100.63,11.42Zm26.42,18.12.31-1.24h-26l-.31,1.24c-.27,1.1.16,1.64,1.3,1.61h22.57A1.93,1.93,0,0,0,127.05,29.54Zm1-3.91.69-2.76h-26L102,25.63Zm1.63-6.55q.42-1.65-1.35-1.56H105.74a2.33,2.33,0,0,0-1.4.38,1.84,1.84,0,0,0-.68,1.18l-.28,1.11h26Zm-17-14.33h-6.45a1.69,1.69,0,0,0-1.68,1.38l-.5,2c-.21.83.13,1.28,1,1.33h6.46Zm10.05,4.71,1.17-4.71H116l-1.18,4.71ZM122,39.25q-5.08-1.74-4.81-2.85c.28-1.13,1.18-1.69,2.69-1.69a4.65,4.65,0,0,1,1.48.31,55.91,55.91,0,0,0,8.89,2.23,3.38,3.38,0,0,1,1.56.62,1,1,0,0,1,.29,1.07,2.33,2.33,0,0,1-2.42,2A25.84,25.84,0,0,1,122,39.25Zm12.7-31.12.5-2q.33-1.33-1-1.38h-6.94l-1.18,4.71H133A1.57,1.57,0,0,0,134.66,8.13Z"/><path class="cls-1" d="M164.67,29.39a2.07,2.07,0,0,1,.13,1.44,33.11,33.11,0,0,1-.68,3.61q-1.34,5.34-4.24,5.57a6.08,6.08,0,0,1-5-1.85,16.85,16.85,0,0,1-3.46-5.5,64.3,64.3,0,0,1-6.62,4.59c-2.66,1.6-4.53,2.4-5.63,2.4s-1.52-.67-1.19-2a2.37,2.37,0,0,1,.43-.92,3.4,3.4,0,0,1,.83-.73l2.48-1a35.07,35.07,0,0,0,8.66-5.47q-1.17-5-.11-14l-1.6.17c-2.2.24-3.56.36-4.09.36a1.43,1.43,0,0,1-1.2-.4,1.61,1.61,0,0,1-.06-1.34,2.2,2.2,0,0,1,2.21-1.73l5.19-.45c.42-2.76.92-5.5,1.52-8.23.38-1.79,1.22-2.68,2.53-2.68a1.3,1.3,0,0,1,1.16.54,2.08,2.08,0,0,1,.15,1.56c-.15.8-.41,2.07-.78,3.83l-.9,4.67q5.55-.49,11.82-1.16a1.58,1.58,0,0,1,1.34.34,1.29,1.29,0,0,1,.21,1.31,2.23,2.23,0,0,1-.85,1.25,3.08,3.08,0,0,1-1.61.57L154,15.21h-.09a40,40,0,0,0-.12,11.17A64.73,64.73,0,0,0,160,18.77a3,3,0,0,1,2.4-1.6,1.27,1.27,0,0,1,1.1.42,1.48,1.48,0,0,1,.09,1.22c-.2.81-1.23,2.35-3.11,4.63a57,57,0,0,1-5.94,6.5q2.27,5.56,5.08,5.7c.76.06,1.28-.8,1.58-2.58a9.31,9.31,0,0,0,.2-1.16l.22-1.07c.31-1.24.94-1.87,1.89-1.87A1.39,1.39,0,0,1,164.67,29.39ZM159.32,3.5a1.63,1.63,0,0,1,.74-.91,2.15,2.15,0,0,1,1.2-.43q.84,0,2.19,1.56a11,11,0,0,1,1.38,1.87A2,2,0,0,1,165,7.06a1.78,1.78,0,0,1-3.34.58l-1-1.2-.84-1.07A2.22,2.22,0,0,1,159.32,3.5Zm10.86,37.17h-3c-1.48,0-2.06-.63-1.74-1.91a2.44,2.44,0,0,1,2.7-1.92h2a2.74,2.74,0,0,0,1.73-.51,2.78,2.78,0,0,0,.93-1.58l7.86-31.52c.36-1.45,1.15-2.18,2.37-2.18s1.6.73,1.24,2.18l-8.13,32.59Q175.19,40.93,170.18,40.67Zm-2.67-10.73c-1.19,0-1.6-.72-1.24-2.18L171.69,6c.36-1.46,1.12-2.18,2.28-2.18a1.36,1.36,0,0,1,1.25.51,2.28,2.28,0,0,1,0,1.67l-5.41,21.72C169.47,29.22,168.7,29.94,167.51,29.94Z"/><path class="cls-1" d="M225,32a1.87,1.87,0,0,1-2.06,1.47h-9.66L211.86,39a2.77,2.77,0,0,1-.82,1.49,2.19,2.19,0,0,1-1.45.46q-1.78,0-1.29-1.95l1.4-5.61H198.83a11.14,11.14,0,0,1-5.63,5.43,17.9,17.9,0,0,1-7.87,2,1.58,1.58,0,0,1-1.26-.4,1.41,1.41,0,0,1-.11-1.25,2.12,2.12,0,0,1,2.12-1.56q7.26-.89,9.19-4.18h-9.7q-1.65,0-1.29-1.47a1.85,1.85,0,0,1,2-1.47h10.33l.34-1.2c.18-.72.32-1.24.43-1.56h-3.69a3.15,3.15,0,0,1-2.7-1,3.42,3.42,0,0,1-.11-3l2.24-9q.72-4.14,4.76-3.92h23.82a3.44,3.44,0,0,1,2.82.93c.48.63.49,1.62,0,3l-2.24,9a5.49,5.49,0,0,1-1.66,3,4.65,4.65,0,0,1-3.14.91h-2.85L214,30.48h9.66C224.78,30.48,225.22,31,225,32ZM190.27,8.84a1.7,1.7,0,0,1,.56-.82,13.65,13.65,0,0,1,1.37-1,30,30,0,0,0,5.91-5.3A3.06,3.06,0,0,1,200.4.52c1.25,0,1.76.44,1.54,1.33a4.12,4.12,0,0,1-1.09,1.52h8.9c1.1,0,1.53.49,1.28,1.46a1.8,1.8,0,0,1-2,1.43h-4.5a7.86,7.86,0,0,1,.21,2.58,1.92,1.92,0,0,1-2.14,1.43q-1.29,0-1.35-1.38l-.12-2,0-.62h-3.29q-4.76,4.23-6.36,4.23C190.41,10.49,190,9.94,190.27,8.84Zm5,16.07h22a1.51,1.51,0,0,0,1.59-1.2l.23-.93H194.58l-.23.93Q194.08,24.82,195.25,24.91Zm.48-6.72-.52,2.09h24.53l.52-2.09Zm.62-2.49h24.53l.21-.85q.3-1.2-1-1.2h-22a1.5,1.5,0,0,0-1.5,1.2Zm14.08,14.78.69-2.76H200.79a9.28,9.28,0,0,1-.29,1c-.25.77-.43,1.36-.53,1.78ZM208.88,8.66a8.83,8.83,0,0,1,2.21-2.27,32.4,32.4,0,0,0,4.25-4.54c.81-1,1.56-1.51,2.25-1.51,1.21,0,1.71.44,1.49,1.33A4.94,4.94,0,0,1,218,3.37h12.15c1.13,0,1.57.49,1.33,1.46a1.85,1.85,0,0,1-2.05,1.43h-6.68A7,7,0,0,1,223,8.75a2,2,0,0,1-2.18,1.43c-.95,0-1.45-.57-1.5-1.69l-.11-2.23h-3.74c-2.65,2.67-4.43,4-5.32,4C209,10.27,208.61,9.73,208.88,8.66Z"/><path class="cls-1" d="M256.43,8a2.57,2.57,0,0,1,.26,2.44,43.82,43.82,0,0,1-5.45,12.23,49,49,0,0,1-9,10.46A44.43,44.43,0,0,1,231,40.41a3.12,3.12,0,0,1-1.28.31,1.17,1.17,0,0,1-1.24-.94,1.68,1.68,0,0,1,0-.8,2.84,2.84,0,0,1,1.68-1.73,43.47,43.47,0,0,0,15-11.67A49.36,49.36,0,0,0,240.05,21a1.18,1.18,0,0,1-.48-1.29,1.62,1.62,0,0,1,.52-.85,1.93,1.93,0,0,1,1.37-.66,1.79,1.79,0,0,1,1,.35,41.18,41.18,0,0,1,4.94,4,45.44,45.44,0,0,0,5.11-10.68,1.12,1.12,0,0,0,0-1,1,1,0,0,0-.92-.36h-6.72q-1.95,3-4.26,6A57.82,57.82,0,0,1,236,21.66a2.52,2.52,0,0,1-1.79.94,1.43,1.43,0,0,1-1-.45,1.17,1.17,0,0,1-.32-1.2,3.33,3.33,0,0,1,.94-1.47A69,69,0,0,0,245.69,1.9a2.19,2.19,0,0,1,2-1.43,1.55,1.55,0,0,1,1.36.54,1.71,1.71,0,0,1,0,1.6,34.06,34.06,0,0,1-2.2,4.54h7.3A2.79,2.79,0,0,1,256.43,8Zm16.14,15.71a2.07,2.07,0,0,1-.72,1.11,2.42,2.42,0,0,1-1.49.63,1.66,1.66,0,0,1-1.37-.76q-3.24-4.32-5.4-6.72l-5.13,20.57a2.8,2.8,0,0,1-.87,1.51,2.21,2.21,0,0,1-1.51.53c-1.25,0-1.7-.68-1.36-2l9-36a2.37,2.37,0,0,1,2.4-2.13c1.25,0,1.69.71,1.34,2.13L264.5,14.32a43.08,43.08,0,0,1,7.74,7.88A1.71,1.71,0,0,1,272.57,23.71Z"/><path class="cls-1" d="M291.85,39.25l2.34-9.39H285a2.06,2.06,0,0,0-2.24,1.82l-1.46,5.88c-.34,1.36-1.08,2-2.2,2s-1.48-.68-1.14-2l1.68-6.73q.76-4.35,5.06-4H295l.34-1.38a1.94,1.94,0,0,1,2.13-1.55c1.15,0,1.6.51,1.34,1.55l-.34,1.38h11c2.95-.2,4,1.15,3,4L311.42,35a6.41,6.41,0,0,1-1.88,3.45,4.67,4.67,0,0,1-3.52.91h-2.81c-1.24,0-1.73-.56-1.45-1.69a2.28,2.28,0,0,1,.78-1.31A2.31,2.31,0,0,1,304,36h2.09a2.19,2.19,0,0,0,2.23-1.78l.62-2.49a1.65,1.65,0,0,0-.12-1.38,1.33,1.33,0,0,0-1.25-.44h-9.93l-2.34,9.39a2,2,0,0,1-2.16,1.69C292,40.94,291.57,40.38,291.85,39.25Zm-12.49-16.7L282.25,11a4.11,4.11,0,0,1,4.38-3.47h4.9l1.27-5.12C293.16,1,293.93.25,295.12.25s1.56.71,1.2,2.14L295,7.51h5.08c2.31,0,3.18,1.15,2.6,3.47l-2.18,8.77q-1,3.91-4.72,3.92h-1.56q-1.56,0-1.14-1.65a1.86,1.86,0,0,1,1.95-1.6H296a1.55,1.55,0,0,0,1.57-1.29l1.83-7.35q.27-1.06-.84-1.11H294l-2.94,11.79a1.83,1.83,0,0,1-1.87,1.61c-1,0-1.34-.54-1.07-1.61l2.94-11.79h-4.54a1.34,1.34,0,0,0-1.35,1.11l-2.68,10.77a1.88,1.88,0,0,1-2,1.61C279.48,24.16,279.09,23.62,279.36,22.55Zm4.53-3.16,1.72-3.34a20.14,20.14,0,0,0,1.26-2.71,2.42,2.42,0,0,1,.64-1,1.37,1.37,0,0,1,.94-.36c.83,0,1.13.45.91,1.34a32.72,32.72,0,0,1-3.06,6.36,1.55,1.55,0,0,1-1.43.94C284,20.64,283.68,20.22,283.89,19.39Zm2-13.84-.33-1.16a5,5,0,0,1-.19-.67,1.39,1.39,0,0,1-.06-.67,1.86,1.86,0,0,1,2-1.55c.56,0,1.1.53,1.61,1.6a4.07,4.07,0,0,1,.59,2.27,2,2,0,0,1-2.13,1.74C286.67,7.11,286.18,6.59,285.87,5.55Zm8.59,12.69-.24-4.95a1.45,1.45,0,0,1,1.52-1.24c.59,0,.92.44,1,1.33a32.15,32.15,0,0,1,.35,4.68,1.49,1.49,0,0,1-1.6,1.24A.92.92,0,0,1,294.46,18.24Zm3.7-12.51a2.58,2.58,0,0,1,.68-1.12c.38-.44.89-1.09,1.55-2a2.53,2.53,0,0,1,2.05-1.24c1.1,0,1.51.55,1.24,1.64a9.71,9.71,0,0,1-2.38,3.12,2.77,2.77,0,0,1-2,1.07C298.3,7.24,297.91,6.73,298.16,5.73Zm16.73,18.76c-.45-.22-1.05-.57-1.83-1a16.16,16.16,0,0,1-3.43-2.85q-5.31,3.8-7.75,3.79c-1.13,0-1.55-.56-1.27-1.69.18-.71.83-1.26,2-1.65a25.44,25.44,0,0,0,5.47-2.67,14.62,14.62,0,0,1-1.55-7c-1.25,1.45-2.22,2.18-2.91,2.18-.88,0-1.2-.53-.93-1.6a4.37,4.37,0,0,1,1.09-1.52,40.38,40.38,0,0,0,5.13-7A24.66,24.66,0,0,1,310.64.83,1.85,1.85,0,0,1,312,.34c1.21,0,1.7.5,1.44,1.51a20.65,20.65,0,0,1-2.8,4.28h10.47c1,0,1.38.53,1.11,1.6a1.87,1.87,0,0,1-1.92,1.65H319a30.16,30.16,0,0,1-6.51,8.94A16.45,16.45,0,0,0,317.22,21c1,.36,1.36,1,1.14,1.87a2.21,2.21,0,0,1-2.3,1.91A2.75,2.75,0,0,1,314.89,24.49Zm.83-15.11h-6.36c0,3.2.44,5.5,1.39,6.9A21.94,21.94,0,0,0,315.72,9.38Z"/><path class="cls-1" d="M340.42,27.81l.37-1.47a12.31,12.31,0,0,1,1.95-4.28A22.3,22.3,0,0,1,347.1,18l2.61-1.87c2.13-1.63,3.39-3.24,3.78-4.81s.18-3-.75-3.87-2.5-1.29-4.73-1.29a8.84,8.84,0,0,0-6.38,2.18A12.62,12.62,0,0,0,339.17,12a2.83,2.83,0,0,1-2.53,1.91,1.66,1.66,0,0,1-1.43-.51,1.87,1.87,0,0,1-.11-1.54,11,11,0,0,1,2.54-4.45q4.07-4.89,11.41-4.89,5.22,0,7.45,2.44a7,7,0,0,1,1.17,6.37q-.92,3.69-6.1,7.52l-3,2.19a9.53,9.53,0,0,0-3.83,5.38l-.35,1.38a2.32,2.32,0,0,1-2.41,2C340.6,29.77,340.1,29.11,340.42,27.81ZM337.75,38a2.54,2.54,0,0,1-.33-2.09,4.27,4.27,0,0,1,1.43-2.14,3.85,3.85,0,0,1,2.39-.84,2,2,0,0,1,1.82.89,2.43,2.43,0,0,1,.33,2.09A3.62,3.62,0,0,1,342,38.05a3.72,3.72,0,0,1-2.32.89A2.12,2.12,0,0,1,337.75,38Z"/><path class="cls-1" d="M.36,100.33c.15-.62,1-1.32,2.39-2.09a27.59,27.59,0,0,0,7.34-5.34l-3.25-3a2.82,2.82,0,0,1-1-2.8,22,22,0,0,1,1.32-3.16c.45-1,1.42-3.25,2.93-6.91l.79-1.91-2.42,0c-1.2,0-1.64-.56-1.34-1.78a2.39,2.39,0,0,1,2.54-1.78h2.63l2.48-6.94a2.91,2.91,0,0,1,.92-1.36,2.28,2.28,0,0,1,1.41-.47c1.16,0,1.58.61,1.28,1.83l-2.55,6.85,4.06,0q3.48,0,2.62,3.43a85.87,85.87,0,0,1-3.15,9,33.93,33.93,0,0,1-4.66,8.32q3.29,3.83,2.92,5.25a2.28,2.28,0,0,1-2.4,2c-.59,0-1.37-.87-2.33-2.62L12,95.39a38.43,38.43,0,0,1-5.95,4.94q-3.07,2-4.46,2C.45,102.29,0,101.64.36,100.33Zm17-20.16,1.41-4.06c.28-.77-.1-1.15-1.14-1.15L14.36,75Q12.83,78.88,11,82.88A33,33,0,0,0,9.6,86.13c-.17.65.28,1.42,1.33,2.32l1.65,1.42A43.4,43.4,0,0,0,17.32,80.17ZM19.9,101c.31-1.24,1.25-1.87,2.83-1.87h2.53a2.37,2.37,0,0,0,2.41-2l3.08-12.38H22.43c-1.43,0-2-.58-1.71-1.74a2.31,2.31,0,0,1,2.57-1.73h8.33l1.16-4.68a4.21,4.21,0,0,1,1.16-2.13,30.88,30.88,0,0,1,4.36-2.85c2.4-1.4,3.65-2.3,3.75-2.72a.33.33,0,0,0-.09-.36.52.52,0,0,0-.37-.13H27.17c-1.42,0-2-.55-1.73-1.65a2.16,2.16,0,0,1,.84-1.31A3.05,3.05,0,0,1,28,65.12H45.15q3.62,0,3.07,2.18-.47,1.83-9.26,7.12a5.9,5.9,0,0,0-2.7,2.81l-1,4.14h8.28c1.45,0,2,.58,1.74,1.73s-1.16,1.74-2.61,1.74H34.36L31,98.15a6,6,0,0,1-2.15,3.61A6.54,6.54,0,0,1,25,103H21.78C20.21,103,19.58,102.32,19.9,101Z"/><path class="cls-1" d="M73.71,100.91A2.16,2.16,0,0,1,76,99.09h2.36a2.37,2.37,0,0,0,1.56-.52,2.55,2.55,0,0,0,.84-1.4l2.18-8.77H71.09l-2.94,11.8a2.23,2.23,0,0,1-2.24,2c-1.18,0-1.61-.67-1.28-2l2.94-11.8H56.13A58.59,58.59,0,0,1,51.49,99c-1.46,2.42-2.79,3.63-4,3.63s-1.71-.66-1.37-2a5.43,5.43,0,0,1,1-1.51,32.54,32.54,0,0,0,4.62-8.51A170.89,170.89,0,0,0,57,72.37l1-4.18c.61-2.58,2.45-3.87,5.5-3.87H88q2.49-.18,3.33.93c.56.74.57,1.93,0,3.56L84.13,97.88c-.66,3.48-2.65,5.09-6,4.86H75.08C73.87,102.74,73.41,102.13,73.71,100.91ZM68.38,85.15l1.82-7.3H59.12l-2,7.3Zm4.39-17.58H63.82a2.33,2.33,0,0,0-1.81.82,5.22,5.22,0,0,0-1.08,2.38L60,74.6H71Zm11,17.58,1.82-7.3H73.72l-1.82,7.3Zm3.88-15.54a1.75,1.75,0,0,0-.17-1.49,1.51,1.51,0,0,0-1.33-.55H76.29l-1.76,7H86.37Z"/><path class="cls-1" d="M106.44,86.09l-2.6.93L101,98.64A5.93,5.93,0,0,1,99,101.85,5.31,5.31,0,0,1,95.55,103H93.64c-1.25,0-1.72-.61-1.42-1.83a2.19,2.19,0,0,1,2.33-1.82H96a1.6,1.6,0,0,0,1.73-1.38l2.43-9.75-.58.18c-.87.26-1.61.47-2.23.62a6.77,6.77,0,0,1-1.14.22c-1.22,0-1.67-.62-1.36-1.87a2.7,2.7,0,0,1,2.3-1.91c1.16-.27,2.49-.63,4-1.07l2.43-9.75H99.86a1.36,1.36,0,0,1-1.18-.42,1.65,1.65,0,0,1-.08-1.32,2,2,0,0,1,2.12-1.69h3.65L106,64.49a2.15,2.15,0,0,1,2.17-1.91c1.16,0,1.58.64,1.26,1.91l-1.66,6.68h1.64a1.54,1.54,0,0,1,1.22.4,1.49,1.49,0,0,1,.1,1.29,2.36,2.36,0,0,1-.75,1.32,2.24,2.24,0,0,1-1.42.42h-1.65l-2.15,8.64,1-.32a9,9,0,0,1,1.33-.31c1.1,0,1.51.55,1.24,1.65A2.82,2.82,0,0,1,106.44,86.09Zm25.63,15a2.19,2.19,0,0,1-2.33,1.83,11.25,11.25,0,0,1-6.35-2.36,11.88,11.88,0,0,1-4.68-5.52,18.89,18.89,0,0,1-7.14,5.79,18.42,18.42,0,0,1-7.85,2.18c-1.27,0-1.77-.58-1.48-1.74.24-1,1.25-1.6,3-1.87q8.33-1.38,11.41-6.45h-9.84c-1.19,0-1.65-.54-1.38-1.61a2,2,0,0,1,2.18-1.6h10.46a10.16,10.16,0,0,0,.29-1q.15-.57.45-1.47a2.32,2.32,0,0,1,2.26-1.91c1.28,0,1.77.58,1.48,1.73-.11.45-.38,1.33-.83,2.63h11.35c1.22,0,1.69.55,1.42,1.65A2,2,0,0,1,132.27,93h-11q2.13,5,9.22,6.23C131.8,99.46,132.33,100.09,132.07,101.13Zm-21.43-27.6a3.86,3.86,0,0,1,1.46-1.78,36.94,36.94,0,0,0,7.17-7.83,2.57,2.57,0,0,1,2.14-1.3c1.19,0,1.67.48,1.43,1.43a8.86,8.86,0,0,1-1.52,2.18h8.1c1.78,0,2.5.68,2.16,2-.14.56-1.4,2-3.78,4.45h5.07q4.5-.36,3.06,4l-2.48,9.93a2.22,2.22,0,0,1-2.27,2c-1.16,0-1.57-.65-1.25-2l.39-1.56H126.4a4,4,0,0,1-2.61-.67,2,2,0,0,1-.38-2.14L125,75.85H122.3a18.9,18.9,0,0,1-3.24,7.3c-1.6,2.1-2.93,3.16-4,3.16s-1.34-.51-1.09-1.52a2.23,2.23,0,0,1,.81-1.11,10.32,10.32,0,0,0,3.36-4,23.12,23.12,0,0,0,1.22-3.82h-2.62A1.55,1.55,0,0,0,115,77.18l-2.38,9.57a2.09,2.09,0,0,1-2.12,1.87c-1.09,0-1.49-.62-1.18-1.87l2.42-9.7a6,6,0,0,1,1.08-2.72,2.33,2.33,0,0,1-1.22.45C110.76,74.78,110.43,74.36,110.64,73.53Zm4-.53a5.9,5.9,0,0,1,2.51-.27h7a21.49,21.49,0,0,0,2.61-3c.08-.33-.07-.49-.46-.49h-7.65A50.22,50.22,0,0,1,114.69,73Zm12,7.79a1.3,1.3,0,0,0,0,1c.16.23.47.32,1,.29h3.34l1.18-4.76a1.52,1.52,0,0,0,0-1.18q-.24-.37-1.05-.33H128Z"/><path class="cls-1" d="M140.17,96.86l7-27.87c.63-3.35,2.62-4.94,6-4.76h31.57c1.45,0,2,.59,1.73,1.78s-1.16,1.73-2.61,1.73H153.3a2.45,2.45,0,0,0-2.57,2.1L144.21,96c-.36,1.43.15,2.13,1.52,2.1h30.86c1.39,0,1.94.59,1.64,1.78a2.25,2.25,0,0,1-2.51,1.69H143.8Q138.55,101.94,140.17,96.86ZM147,94a4,4,0,0,1,.75-1.21q2.35-2.83,5.64-7.43a2.4,2.4,0,0,1,1.9-1.2c1.1,0,1.53.46,1.3,1.38s-2,3.65-5.34,8c-1.14,1.49-2.06,2.23-2.78,2.23C147.23,95.75,146.74,95.15,147,94Zm5.1-12.85c-.24-.16-.47-.32-.68-.49a5.13,5.13,0,0,1-.46-.38c-1.15-.86-1.66-1.57-1.52-2.13a2,2,0,0,1,2-1.7A4.73,4.73,0,0,1,154,77.89a1.8,1.8,0,0,1,.8,1.78,2,2,0,0,1-2.07,1.7A1.09,1.09,0,0,1,152.13,81.12Zm4.48-7.72-1-1a4.49,4.49,0,0,1-.82-.94,1,1,0,0,1-.14-.75,1.89,1.89,0,0,1,2-1.61,3.83,3.83,0,0,1,2.1,1.21c.95.83,1.35,1.55,1.2,2.18a1.92,1.92,0,0,1-2,1.6A1.85,1.85,0,0,1,156.61,73.4Zm.73,18.52,3.55-14.25q-2.82,2.89-3.84,2.9c-1,0-1.34-.51-1.09-1.52a3.43,3.43,0,0,1,1.1-1.38,47.56,47.56,0,0,0,7.28-7.74c.74-1,1.42-1.43,2-1.43,1.1,0,1.54.45,1.32,1.34a11.85,11.85,0,0,1-2,2.67l-.6.62h7.13l2.33-3.29a2.64,2.64,0,0,1,2.06-1.3c1.1,0,1.54.44,1.32,1.3a11.19,11.19,0,0,1-2.1,2.89l-.32.4h6.55c1.09,0,1.52.48,1.29,1.43a1.82,1.82,0,0,1-2,1.42h-6.73l-.86,3.47h5.92c1,0,1.45.45,1.22,1.34A1.71,1.71,0,0,1,179,82.12h-5.92l-.91,3.65h5.92c1,0,1.45.45,1.23,1.34a1.74,1.74,0,0,1-1.9,1.38H171.5l-1,4.05H178c1.1,0,1.53.48,1.29,1.43a1.82,1.82,0,0,1-2,1.42H159.9Q156.47,95.39,157.34,91.92Zm11.14-3.43H161.4l-.68,2.72c-.21.83.13,1.27,1,1.33h5.75Zm.67-2.72.91-3.65H163l-.92,3.65ZM171.6,76h-6.33a.92.92,0,0,0-1,.8l-.67,2.67h7.08Z"/><path class="cls-1" d="M184.28,94.19a2.35,2.35,0,0,1,.77-1.29,12.29,12.29,0,0,1,3.79-1.25l1.22-.27,1.25-.35,5-20h-4.1c-1.45,0-2-.59-1.73-1.78a2.35,2.35,0,0,1,2.62-1.78h12.2c1.45,0,2,.6,1.74,1.78a2.36,2.36,0,0,1-2.63,1.78H200L195.3,90q3.15-.84,4.91-1.46a4.46,4.46,0,0,1,1.51-.36c1.07,0,1.46.56,1.18,1.69a3,3,0,0,1-2.07,1.87c-.33.15-.94.36-1.83.65l-2.15.69-4.11,1.29a49.24,49.24,0,0,1-6.94,2C184.43,96.33,183.93,95.61,184.28,94.19Zm24.83,6.5a2.42,2.42,0,0,1,2.52-2.09l2.17,0a4.11,4.11,0,0,0,3-1.07c.69-.62,1.75-3,3.17-7q1.88-5.34,3.46-11.71c.42-1.69-.08-2.54-1.51-2.54h-6.32a57.61,57.61,0,0,1-6.41,14.65,32.78,32.78,0,0,1-10.34,9.53q-3.69,2.27-5.11,2.27c-1.31,0-1.79-.69-1.45-2,.16-.65,1.19-1.46,3.09-2.41A27.35,27.35,0,0,0,207.66,87.2a55.5,55.5,0,0,0,4.24-10.91h-5.35c-1.51,0-2.11-.62-1.8-1.87s1.21-1.82,2.73-1.82h5.38q1.17-4.14,1.92-7.17c.47-1.87,1.33-2.81,2.57-2.81s1.8.82,1.4,2.45-1.14,4.26-2.1,7.53h7.74c3,0,4.12,1.52,3.36,4.58q-3.33,13.32-6.51,20-2.7,5.64-10.09,5.65C209.43,102.87,208.75,102.14,209.11,100.69Z"/><path class="cls-1" d="M231.05,101.45l5-20.17a5.1,5.1,0,0,1,1.52-2.78,4.05,4.05,0,0,1,2.89-.78H250a3.14,3.14,0,0,1,2.57.84c.44.57.46,1.47.06,2.72L248.2,98.91a6,6,0,0,1-1.86,3.31,4.58,4.58,0,0,1-3.42.87H241c-1.28,0-1.78-.56-1.49-1.69a2.17,2.17,0,0,1,2.35-1.78H243a2,2,0,0,0,2-1.6l1-4.1H236.3l-1.87,7.53a2,2,0,0,1-2.09,1.78C231.18,103.23,230.75,102.63,231.05,101.45ZM252.83,74.6l-16,1.29a2,2,0,0,1-1.62-.4,1.43,1.43,0,0,1-.24-1.42q.45-1.83,4.19-1.83h.72l3.46-6c.48-.83.89-1.54,1.24-2.12a4.15,4.15,0,0,1,.85-1.09,2.82,2.82,0,0,1,1.53-.4c1.3,0,1.82.55,1.55,1.65s-2.09,3.83-5.36,7.92l8.65-.4-.93-2a3.82,3.82,0,0,1-.52-1.65,1.89,1.89,0,0,1,2.1-1.47q1.06,0,2.81,3.74c1.15,2.52,1.62,4.19,1.42,5a2,2,0,0,1-2.15,1.69C253.88,77.05,253.32,76.23,252.83,74.6Zm-6,16.21.84-3.34h-9.75l-.84,3.34Zm2.11-8.46c.24-.95-.1-1.43-1-1.43h-7a1.67,1.67,0,0,0-1.74,1.43l-.5,2h9.75Zm3.38,19a2.48,2.48,0,0,1-.54-2.67l3.45-13.85a3.19,3.19,0,0,1,.82-1.58,2,2,0,0,1,1.44-.51c1.13,0,1.52.7,1.17,2.09l-1.15,4.64c2-.6,4-1.27,6-2L267,86.09a4.39,4.39,0,0,1,1.47-.36c1.24,0,1.71.62,1.4,1.87a2.27,2.27,0,0,1-1.36,1.51q-.84.36-4.55,1.47-2.55.77-7.21,1.78l-1.17,4.72a1.1,1.1,0,0,0,.24,1.16,2.18,2.18,0,0,0,1.4.45l1.1.08,1.81,0A22.84,22.84,0,0,0,264,98.6a2.81,2.81,0,0,0,2.14-2,2.22,2.22,0,0,1,2.19-1.6c1.3,0,1.81.56,1.53,1.69q-.94,3.82-3.92,4.85-1.67.59-7.31.58C255.05,102.11,253,101.85,252.32,101.31Zm5.13-20.61a2.43,2.43,0,0,1-.54-2.63l3.24-13c.35-1.42,1.11-2.13,2.27-2.13s1.51.71,1.16,2.13l-1.17,4.68,3.68-1.21,5.79-2.13a4.39,4.39,0,0,1,1.47-.36q1.78,0,1.35,1.74a2.45,2.45,0,0,1-1.47,1.6A30.68,30.68,0,0,1,269,70.77c-2.51.65-4.94,1.26-7.31,1.83l-1,3.87c-.26,1,.28,1.6,1.62,1.69l1.09.09,1.82,0a21.33,21.33,0,0,0,3.85-.27,2.84,2.84,0,0,0,2.15-2,2.22,2.22,0,0,1,2.19-1.6c1.3,0,1.81.56,1.53,1.69a6.45,6.45,0,0,1-3.93,4.9c-.93.35-3.36.53-7.31.53Q258.32,81.5,257.45,80.7Z"/><path class="cls-1" d="M274.05,100.73a2.22,2.22,0,0,1,.83-1.11,9.51,9.51,0,0,1,2-1.11Q291.79,92,297,77.49H282.52a2.27,2.27,0,0,1-1.61-.44,1.41,1.41,0,0,1-.21-1.38,2.11,2.11,0,0,1,.9-1.36,3.36,3.36,0,0,1,1.82-.42h14.91q.72-2,2.42-8.82c.38-1.51,1.17-2.27,2.39-2.27a1.37,1.37,0,0,1,1.32.63,2.29,2.29,0,0,1,.07,1.64q-.66,2.67-2.42,8.82h16.16c1.52,0,2.13.59,1.83,1.78s-1.21,1.82-2.72,1.82H301.7A23.65,23.65,0,0,0,313.28,98.2a1.93,1.93,0,0,1,1.11,2.18,2.49,2.49,0,0,1-2.55,2.18,3.59,3.59,0,0,1-1.62-.76c-.75-.5-1.83-1.35-3.26-2.54a22.42,22.42,0,0,1-5.76-7.43,25.14,25.14,0,0,1-2.5-9.26,41.83,41.83,0,0,1-17.86,18.07q-3.9,2.1-5.37,2.1C274.19,102.74,273.72,102.07,274.05,100.73Z"/><path class="cls-1" d="M337.73,84.44A2.07,2.07,0,0,1,336.46,86l-3.66,1.12-2.86,11.44a5.94,5.94,0,0,1-2.09,3.38,5.58,5.58,0,0,1-3.51,1.07h-2.09c-1.37,0-1.89-.65-1.56-2a2.32,2.32,0,0,1,2.52-1.91h1.47a2,2,0,0,0,2-1.7l2.3-9.21a34,34,0,0,1-4.71,1c-1.19,0-1.63-.59-1.34-1.78a2,2,0,0,1,.89-1.22,6.24,6.24,0,0,1,2-.78l4.05-.89,2.53-10.15h-4A2.06,2.06,0,0,1,327,74a1.28,1.28,0,0,1-.18-1.25A2.21,2.21,0,0,1,329.27,71h4l1.53-6.14a2.28,2.28,0,0,1,2.29-2.05c1.19,0,1.62.68,1.27,2.05L336.79,71h2.54c1.34,0,1.86.56,1.58,1.69a2,2,0,0,1-.8,1.25,2.88,2.88,0,0,1-1.61.4H336l-2.29,9.17,2.85-.71C337.59,82.84,338,83.37,337.73,84.44Zm22.33,15.76a2.18,2.18,0,0,1-2.42,1.69H339.87c-3.05.24-4.1-1.16-3.14-4.18l4.9-19.64a19.32,19.32,0,0,1-2.32,2.32,3,3,0,0,1-1.53.8q-1.61,0-1.17-1.74a4,4,0,0,1,1.27-1.69,52.48,52.48,0,0,0,9.74-13.35,4,4,0,0,1,1.12-1.36,2.19,2.19,0,0,1,1.34-.47c1.21,0,1.68.56,1.4,1.69-.16.63-1.57,2.85-4.25,6.68h7.08c1.05-1.48,2.2-3.27,3.43-5.34,1-1.75,2-2.63,2.92-2.63,1.19,0,1.64.55,1.37,1.65Q361.7,66,357.74,71h7.08c1.39,0,1.95.56,1.67,1.69a2.23,2.23,0,0,1-2.5,1.65h-7.08l-1.39,5.56H362c1.28,0,1.79.54,1.52,1.61a2,2,0,0,1-.78,1.24,2.62,2.62,0,0,1-1.55.4h-6.45l-1.38,5.52h6.46c1.27,0,1.78.55,1.5,1.65A2.1,2.1,0,0,1,359,91.92h-6.46l-1.65,6.63h7.61C359.8,98.55,360.34,99.1,360.06,100.2Zm-11-8.28h-7.39l-1.23,4.94c-.17.65-.16,1.09,0,1.31s.59.35,1.24.38h5.69Zm.82-3.3,1.38-5.52h-7.39l-1.38,5.52Zm3.57-14.33h-6.14a1.48,1.48,0,0,0-1,.29,2.41,2.41,0,0,0-.55,1l-1,4.23h7.39Z"/><path class="cls-1" d="M411.91,73.84c-.23.92-.94,1.38-2.12,1.38H398.48l-.55,2.19h7.62q3.38,0,2.64,3l-.45,1.78a3.64,3.64,0,0,1-4.13,3H382.56l-.21.49-.26.49-.32.94h24.4a1.5,1.5,0,0,1,1.12.31,1.06,1.06,0,0,1,.11,1,1.69,1.69,0,0,1-1.88,1.29H380.63l-.37,1a.69.69,0,0,0,.08.75,1,1,0,0,0,.77.27H403.6a2.93,2.93,0,0,1,2.34.78,2.48,2.48,0,0,1,.29,2.25c-.89,3.53-2,5.87-3.27,7s-3.25,1.6-6.1,1.6c-1.34,0-1.86-.57-1.57-1.73s1.17-1.62,2.73-1.65a4.1,4.1,0,0,0,2.92-.84,10.11,10.11,0,0,0,1.49-3.83c.09-.36.06-.6-.08-.74a1.23,1.23,0,0,0-.8-.2H378.93a3,3,0,0,1-2.25-.69,2,2,0,0,1-.33-2l2.69-6.5H375a57.12,57.12,0,0,1-4.4,12.47,19.64,19.64,0,0,1-2.25,3.49,2.71,2.71,0,0,1-1.93,1.14c-1.16,0-1.59-.58-1.31-1.74a6.51,6.51,0,0,1,1.14-1.87q3.36-4.36,6.41-16.61l1.55-6.23c.56-2.22,2.08-3.34,4.58-3.34h11.75l.31-1.24A2,2,0,0,1,393,69.61c1.19,0,1.65.54,1.38,1.61l-.31,1.24h16.38Q412.26,72.46,411.91,73.84ZM377.23,95.72a1.35,1.35,0,0,1,.06,1.1l-.38.8q-2.61,4.75-4.26,4.76t-1.23-1.47a7.19,7.19,0,0,1,1-1.51q.7-.9,1.86-2.67a2.42,2.42,0,0,1,1.94-1.34A1.23,1.23,0,0,1,377.23,95.72ZM373.65,67.3a1.85,1.85,0,0,1,2-1.47h8.9l.41-1.65a1.89,1.89,0,0,1,2.07-1.51c1.16,0,1.61.5,1.36,1.51L388,65.83h11.75l.41-1.65a1.94,1.94,0,0,1,.69-1.13,2.18,2.18,0,0,1,1.38-.38,1.49,1.49,0,0,1,1.2.38,1.29,1.29,0,0,1,.12,1.13l-.42,1.65h9.26c1.13,0,1.57.49,1.33,1.47a1.87,1.87,0,0,1-2.06,1.47H402.4l-.34,1.38a2.09,2.09,0,0,1-.7,1.18,2.24,2.24,0,0,1-1.38.38,1.49,1.49,0,0,1-1.2-.38,1.36,1.36,0,0,1-.11-1.18l.35-1.38H387.26l-.34,1.38a2,2,0,0,1-.72,1.18,2.33,2.33,0,0,1-1.4.38c-1.13,0-1.57-.52-1.31-1.56l.35-1.38h-8.91C373.83,68.77,373.41,68.28,373.65,67.3Zm9.23,15.31.66-2.67h-7.21l-.66,2.67Zm1.3-5.2.54-2.19h-5.79a1.74,1.74,0,0,0-1.8,1.52l-.17.67Zm-.65,20.25a8,8,0,0,1,.12,2.94,1.71,1.71,0,0,1-1.86,1.38,1.09,1.09,0,0,1-.91-.36,1.86,1.86,0,0,1-.3-1.2L380.41,97a1.72,1.72,0,0,1,.57-1,2.07,2.07,0,0,1,1.22-.31C382.88,95.7,383.33,96.36,383.53,97.66Zm9.81-15,.67-2.67h-7.17l-.67,2.67Zm-3,14.7a7.86,7.86,0,0,1,.22,2.71,1.66,1.66,0,0,1-1.8,1.34c-.81,0-1.27-.89-1.39-2.67l-.15-1.7a2,2,0,0,1,.58-1.18,1.86,1.86,0,0,1,1.18-.33C389.66,95.48,390.11,96.09,390.34,97.31Zm4.3-19.9.54-2.19H388l-.54,2.19Zm.9,22.79c-.65,0-1.11-.65-1.38-2a10,10,0,0,1-.25-1.82,1.54,1.54,0,0,1,1.69-1.25c.62,0,1.1.47,1.42,1.42a4.06,4.06,0,0,1,.29,2.23A1.66,1.66,0,0,1,395.54,100.2Zm1.72-20.26-.68,2.72H403a1.22,1.22,0,0,0,.89-.34,2.44,2.44,0,0,0,.56-1.18c.2-.8-.06-1.2-.77-1.2Z"/></g></g></svg>